<?xml version="1.0" encoding="UTF-8" standalone="no"?>
<!-- Created with Inkscape (http://www.inkscape.org/) -->

<svg
   xmlns:svg="http://www.w3.org/2000/svg"
   xmlns="http://www.w3.org/2000/svg"
   version="1.1"
   width="744.09448"
   height="1052.3622"
   id="svg2">
  <defs
     id="defs4" />
  <g
     id="layer1">
    <a
       id="a2838">
      <g
         id="text2816"
         style="font-size:40px;font-style:normal;font-weight:normal;fill:#000000;fill-opacity:1;stroke:none;font-family:Bitstream Vera Sans">
        <path
           d="m 19.697039,40.505035 4.319944,0 0,-24.639682 7.7999,0 0,-3.839951 -19.919744,0 0,3.839951 7.7999,0 z"
           id="path2843"
           style="fill:#660000;font-family:DINMittelschrift;-inkscape-font-specification:DINMittelschrift" />
        <path
           d="m 50.216903,31.905146 0,-3.359957 c -0.06835,-2.649117 -0.901672,-4.730755 -2.499968,-6.24492 -1.598328,-1.514127 -3.551634,-2.285783 -5.859924,-2.314969 -2.063316,-0.05748 -3.946623,0.697511 -5.649929,2.264971 -1.703313,1.567497 -2.606634,4.292459 -2.709964,8.174894 0.114997,4.069954 1.094983,6.829916 2.939962,8.279894 1.84497,1.449981 3.864942,2.129971 6.059923,2.039973 1.36997,0.0083 2.679952,-0.248331 3.929949,-0.76999 1.249968,-0.521659 2.379952,-1.358314 3.389956,-2.509967 l -2.959962,-2.519968 c -0.612506,0.624163 -1.307497,1.105823 -2.084974,1.444981 -0.777502,0.339166 -1.562491,0.510831 -2.354968,0.514994 -1.426658,-8.3e-4 -2.583309,-0.419158 -3.469956,-1.254984 -0.886662,-0.835817 -1.343322,-2.084133 -1.369982,-3.744952 z M 37.577066,28.545189 c 0.06333,-1.544133 0.486654,-2.715783 1.269984,-3.514955 0.783315,-0.79914 1.786634,-1.200801 3.009961,-1.204984 1.220807,0.0042 2.219127,0.405845 2.994962,1.204985 0.775809,0.799171 1.204136,1.970821 1.284983,3.514954 z"
           id="path2845"
           style="fill:#660000;font-family:DINMittelschrift;-inkscape-font-specification:DINMittelschrift" />
        <path
           d="m 54.497106,35.585099 c 0.03166,1.797479 0.528323,3.072461 1.48998,3.82495 0.96165,0.75249 2.198299,1.117485 3.709953,1.094986 l 1.799976,0 0,-3.83995 -1.399981,0 c -1.006662,-0.0067 -1.513321,-0.473323 -1.519981,-1.399982 l 0,-23.239701 -4.079947,0 z"
           id="path2847"
           style="fill:#660000;font-family:DINMittelschrift;-inkscape-font-specification:DINMittelschrift" />
        <path
           d="m 80.529403,31.905146 0,-3.359957 c -0.06835,-2.649117 -0.901672,-4.730755 -2.499968,-6.24492 -1.598328,-1.514127 -3.551634,-2.285783 -5.859924,-2.314969 -2.063316,-0.05748 -3.946623,0.697511 -5.649929,2.264971 -1.703313,1.567497 -2.606634,4.292459 -2.709964,8.174894 0.114997,4.069954 1.094983,6.829916 2.939962,8.279894 1.84497,1.449981 3.864942,2.129971 6.059923,2.039973 1.36997,0.0083 2.679952,-0.248331 3.929949,-0.76999 1.249968,-0.521659 2.379952,-1.358314 3.389956,-2.509967 l -2.959962,-2.519968 c -0.612506,0.624163 -1.307497,1.105823 -2.084974,1.444981 -0.777502,0.339166 -1.562491,0.510831 -2.354968,0.514994 -1.426658,-8.3e-4 -2.583309,-0.419158 -3.469956,-1.254984 -0.886662,-0.835817 -1.343322,-2.084133 -1.369982,-3.744952 z M 67.889566,28.545189 c 0.06333,-1.544133 0.486654,-2.715783 1.269984,-3.514955 0.783315,-0.79914 1.786634,-1.200801 3.009961,-1.204984 1.220807,0.0042 2.219127,0.405845 2.994962,1.204985 0.775809,0.799171 1.204136,1.970821 1.284983,3.514954 z"
           id="path2849"
           style="fill:#660000;font-family:DINMittelschrift;-inkscape-font-specification:DINMittelschrift" />
        <path
           d="m 85.449597,40.505035 4.079948,0 0,-17.159779 4.079947,0 0,-3.11996 -4.079947,0 0,-2.679965 c -0.0092,-0.612469 0.119158,-1.047463 0.384996,-1.304984 0.265822,-0.257472 0.724149,-0.38247 1.374981,-0.374994 l 2.31997,0 0,-3.839951 -2.639966,0 c -1.612487,-0.0075 -2.927469,0.437522 -3.94495,1.334983 -1.017491,0.897514 -1.542483,2.292495 -1.574979,4.184946 l 0,2.679965 -2.039973,0 0,3.11996 2.039973,0 z"
           id="path2851"
           style="fill:#660000;font-family:DINMittelschrift;-inkscape-font-specification:DINMittelschrift" />
        <path
           d="m 94.903368,30.345166 c -0.0058,2.14248 0.16583,3.777457 0.514994,4.904936 0.34916,1.12749 0.910819,2.092477 1.684978,2.894964 0.549156,0.650826 1.320812,1.239151 2.314971,1.764977 0.994149,0.525826 2.275799,0.804156 3.844949,0.834989 1.56914,-0.03083 2.85078,-0.309162 3.84495,-0.834989 0.99414,-0.525826 1.7658,-1.114151 2.31497,-1.764977 0.77414,-0.802488 1.3358,-1.767475 1.68498,-2.894964 0.34914,-1.127478 0.52081,-2.762456 0.51499,-4.904936 0.006,-2.123293 -0.16585,-3.746604 -0.51499,-4.869937 -0.34918,-1.123303 -0.91084,-2.086623 -1.68498,-2.889963 -0.54917,-0.650807 -1.32083,-1.239132 -2.31497,-1.764977 -0.99417,-0.525806 -2.27581,-0.804136 -3.84495,-0.834989 -1.56915,0.03085 -2.8508,0.309183 -3.84495,0.834989 -0.994159,0.525846 -1.765815,1.114171 -2.31497,1.764977 -0.77416,0.80334 -1.335819,1.76666 -1.684978,2.889963 -0.349164,1.123333 -0.520828,2.746644 -0.514994,4.869937 z m 12.639842,0.04 c 0.006,1.40999 -0.0658,2.439975 -0.215,3.089959 -0.14918,0.649999 -0.41084,1.219991 -0.78499,1.709979 -0.31168,0.429165 -0.75834,0.780827 -1.33998,1.054985 -0.58168,0.274167 -1.22833,0.415832 -1.93998,0.424996 -0.71167,-0.0092 -1.35832,-0.150828 -1.93997,-0.424995 -0.58167,-0.274159 -1.02833,-0.625821 -1.339987,-1.054986 -0.374168,-0.489155 -0.635832,-1.060814 -0.784991,-1.714978 -0.14917,-0.65415 -0.220836,-1.695803 -0.214996,-3.12496 -0.0058,-1.40997 0.06583,-2.439956 0.214997,-3.089961 0.149158,-0.649978 0.410822,-1.219969 0.78499,-1.709977 0.311657,-0.429146 0.758317,-0.780808 1.339987,-1.054987 0.58165,-0.274148 1.2283,-0.415812 1.93997,-0.424994 0.71165,0.0092 1.3583,0.150849 1.93998,0.424995 0.58164,0.274179 1.0283,0.625841 1.33998,1.054986 0.37415,0.489175 0.63581,1.060834 0.78499,1.714978 0.14915,0.654171 0.22081,1.695824 0.215,3.12496 z"
           id="path2853"
           style="fill:#660000;font-family:DINMittelschrift;-inkscape-font-specification:DINMittelschrift" />
        <path
           d="m 115.90336,40.505035 4.07994,0 0,-12.079844 c 0.0233,-1.389136 0.40666,-2.460788 1.14999,-3.21496 0.74331,-0.754141 1.70663,-1.135802 2.88996,-1.144984 1.16414,0.0092 2.11579,0.390845 2.85496,1.144986 0.73915,0.754172 1.12081,1.825823 1.14499,3.214958 l 0,12.079844 4.07995,0 0,-13.479826 c -0.0842,-2.305788 -0.81584,-4.054098 -2.19497,-5.244933 -1.37917,-1.190798 -2.90081,-1.789123 -4.56495,-1.794976 -1.08499,2e-5 -2.07498,0.200017 -2.96996,0.599992 -0.895,0.400014 -1.66498,1.000006 -2.30997,1.799977 l -0.08,0 0,-2.159973 -4.07994,0 z"
           id="path2855"
           style="fill:#660000;font-family:DINMittelschrift;-inkscape-font-specification:DINMittelschrift" />
        <path
           d="m 137.62773,20.225296 -2.03998,0 0,3.11996 2.03998,0 0,12.159844 c 0.0275,1.608315 0.49249,2.841631 1.39498,3.699952 0.90248,0.858322 2.07747,1.29165 3.52495,1.299983 l 2.11998,0 0,-3.83995 -1.51998,0 c -0.49751,0.0067 -0.8625,-0.106662 -1.09499,-0.339996 -0.2325,-0.233326 -0.3475,-0.626654 -0.345,-1.179985 l 0,-11.799848 2.95997,0 0,-3.11996 -2.95997,0 0,-6.15992 -4.07994,0 z"
           id="path2857"
           style="fill:#660000;font-family:DINMittelschrift;-inkscape-font-specification:DINMittelschrift" />
        <path
           d="m 164.20128,31.905146 0,-3.359957 c -0.0684,-2.649117 -0.90167,-4.730755 -2.49997,-6.24492 -1.59833,-1.514127 -3.55163,-2.285783 -5.85992,-2.314969 -2.06332,-0.05748 -3.94663,0.697511 -5.64993,2.264971 -1.70332,1.567497 -2.60664,4.292459 -2.70997,8.174894 0.115,4.069954 1.09499,6.829916 2.93997,8.279894 1.84496,1.449981 3.86494,2.129971 6.05992,2.039973 1.36997,0.0083 2.67995,-0.248331 3.92995,-0.76999 1.24996,-0.521659 2.37995,-1.358314 3.38995,-2.509967 l -2.95996,-2.519968 c -0.61251,0.624163 -1.3075,1.105823 -2.08497,1.444981 -0.7775,0.339166 -1.56249,0.510831 -2.35497,0.514994 -1.42666,-8.3e-4 -2.58331,-0.419158 -3.46996,-1.254984 -0.88666,-0.835817 -1.34332,-2.084133 -1.36998,-3.744952 z m -12.63984,-3.359957 c 0.0633,-1.544133 0.48666,-2.715783 1.26998,-3.514955 0.78332,-0.79914 1.78664,-1.200801 3.00997,-1.204984 1.2208,0.0042 2.21912,0.405845 2.99496,1.204985 0.77581,0.799171 1.20413,1.970821 1.28498,3.514954 z"
           id="path2859"
           style="fill:#660000;font-family:DINMittelschrift;-inkscape-font-specification:DINMittelschrift" />
        <path
           d="m 168.48148,40.505035 4.07995,0 0,-12.199843 c 0.04,-1.471634 0.44999,-2.548286 1.22998,-3.229959 0.77998,-0.681641 1.68997,-1.018303 2.72997,-1.009986 0.50665,-0.0033 0.96331,0.07335 1.36998,0.229998 0.40665,0.156681 0.84331,0.413344 1.30998,0.769989 l 2.95996,-3.519954 c -0.61667,-0.484975 -1.27333,-0.864969 -1.96997,-1.139986 -0.69667,-0.274977 -1.45333,-0.414975 -2.26997,-0.419994 -1.085,2e-5 -2.07499,0.200017 -2.96996,0.599992 -0.895,0.400014 -1.66499,1.000006 -2.30997,1.799977 l -0.08,0 0,-2.159973 -4.07995,0 z"
           id="path2861"
           style="fill:#660000;font-family:DINMittelschrift;-inkscape-font-specification:DINMittelschrift" />
        <path
           d="m 184.02836,40.505035 4.07994,0 0,-12.199843 c 0.04,-1.471634 0.44999,-2.548286 1.22999,-3.229959 0.77998,-0.681641 1.68997,-1.018303 2.72996,-1.009986 0.50665,-0.0033 0.96331,0.07335 1.36998,0.229998 0.40665,0.156681 0.84331,0.413344 1.30999,0.769989 l 2.95996,-3.519954 c -0.61668,-0.484975 -1.27333,-0.864969 -1.96998,-1.139986 -0.69667,-0.274977 -1.45332,-0.414975 -2.26997,-0.419994 -1.08499,2e-5 -2.07498,0.200017 -2.96996,0.599992 -0.895,0.400014 -1.66498,1.000006 -2.30997,1.799977 l -0.08,0 0,-2.159973 -4.07994,0 z"
           id="path2863"
           style="fill:#660000;font-family:DINMittelschrift;-inkscape-font-specification:DINMittelschrift" />
        <path
           d="m 198.57524,30.345166 c -0.006,2.14248 0.16583,3.777457 0.515,4.904936 0.34916,1.12749 0.91082,2.092477 1.68498,2.894964 0.54915,0.650826 1.32081,1.239151 2.31497,1.764977 0.99414,0.525826 2.27579,0.804156 3.84495,0.834989 1.56913,-0.03083 2.85078,-0.309162 3.84495,-0.834989 0.99414,-0.525826 1.76579,-1.114151 2.31497,-1.764977 0.77414,-0.802488 1.3358,-1.767475 1.68497,-2.894964 0.34915,-1.127478 0.52081,-2.762456 0.515,-4.904936 0.006,-2.123293 -0.16585,-3.746604 -0.51499,-4.869937 -0.34918,-1.123303 -0.91084,-2.086623 -1.68498,-2.889963 -0.54918,-0.650807 -1.32083,-1.239132 -2.31497,-1.764977 -0.99417,-0.525806 -2.27582,-0.804136 -3.84495,-0.834989 -1.56916,0.03085 -2.85081,0.309183 -3.84495,0.834989 -0.99416,0.525846 -1.76582,1.114171 -2.31497,1.764977 -0.77416,0.80334 -1.33582,1.76666 -1.68498,2.889963 -0.34917,1.123333 -0.52083,2.746644 -0.515,4.869937 z m 12.63984,0.04 c 0.006,1.40999 -0.0659,2.439975 -0.215,3.089959 -0.14918,0.649999 -0.41084,1.219991 -0.78499,1.709979 -0.31167,0.429165 -0.75833,0.780827 -1.33998,1.054985 -0.58167,0.274167 -1.22833,0.415832 -1.93997,0.424996 -0.71167,-0.0092 -1.35833,-0.150828 -1.93998,-0.424995 -0.58167,-0.274159 -1.02833,-0.625821 -1.33998,-1.054986 -0.37417,-0.489155 -0.63583,-1.060814 -0.78499,-1.714978 -0.14917,-0.65415 -0.22084,-1.695803 -0.215,-3.12496 -0.006,-1.40997 0.0658,-2.439956 0.215,-3.089961 0.14916,-0.649978 0.41082,-1.219969 0.78499,-1.709977 0.31165,-0.429146 0.75831,-0.780808 1.33998,-1.054987 0.58165,-0.274148 1.22831,-0.415812 1.93998,-0.424994 0.71164,0.0092 1.3583,0.150849 1.93997,0.424995 0.58165,0.274179 1.02831,0.625841 1.33998,1.054986 0.37415,0.489175 0.63581,1.060834 0.78499,1.714978 0.14915,0.654171 0.22082,1.695824 0.215,3.12496 z"
           id="path2865"
           style="fill:#660000;font-family:DINMittelschrift;-inkscape-font-specification:DINMittelschrift" />
        <path
           d="m 219.57523,40.505035 4.07995,0 0,-12.199843 c 0.04,-1.471634 0.44999,-2.548286 1.22998,-3.229959 0.77998,-0.681641 1.68997,-1.018303 2.72997,-1.009986 0.50665,-0.0033 0.96331,0.07335 1.36998,0.229998 0.40665,0.156681 0.84331,0.413344 1.30998,0.769989 l 2.95996,-3.519954 c -0.61667,-0.484975 -1.27333,-0.864969 -1.96997,-1.139986 -0.69667,-0.274977 -1.45333,-0.414975 -2.26997,-0.419994 -1.085,2e-5 -2.07499,0.200017 -2.96996,0.599992 -0.895,0.400014 -1.66499,1.000006 -2.30997,1.799977 l -0.08,0 0,-2.159973 -4.07995,0 z"
           id="path2867"
           style="fill:#660000;font-family:DINMittelschrift;-inkscape-font-specification:DINMittelschrift" />
        <path
           d="m 235.2421,40.505035 4.07995,0 0,-4.079947 -4.07995,0 z"
           id="path2869"
           style="fill:#660000;font-family:DINMittelschrift;-inkscape-font-specification:DINMittelschrift" />
        <path
           d="m 244.73148,40.505035 4.07995,0 0,-12.079844 c 0.0233,-1.389136 0.40665,-2.460788 1.14998,-3.21496 0.74332,-0.754141 1.70664,-1.135802 2.88997,-1.144984 1.16414,0.0092 2.11579,0.390845 2.85496,1.144986 0.73914,0.754172 1.1208,1.825823 1.14498,3.214958 l 0,12.079844 4.07995,0 0,-13.479826 c -0.0842,-2.305788 -0.81584,-4.054098 -2.19497,-5.244933 -1.37916,-1.190798 -2.90081,-1.789123 -4.56494,-1.794976 -1.085,2e-5 -2.07499,0.200017 -2.96996,0.599992 -0.895,0.400014 -1.66499,1.000006 -2.30997,1.799977 l -0.08,0 0,-2.159973 -4.07995,0 z"
           id="path2871"
           style="fill:#660000;font-family:DINMittelschrift;-inkscape-font-specification:DINMittelschrift" />
        <path
           d="m 265.21587,30.345166 c -0.006,2.14248 0.16583,3.777457 0.51499,4.904936 0.34916,1.12749 0.91082,2.092477 1.68498,2.894964 0.54916,0.650826 1.32081,1.239151 2.31497,1.764977 0.99415,0.525826 2.2758,0.804156 3.84495,0.834989 1.56914,-0.03083 2.85078,-0.309162 3.84495,-0.834989 0.99414,-0.525826 1.7658,-1.114151 2.31497,-1.764977 0.77414,-0.802488 1.3358,-1.767475 1.68498,-2.894964 0.34914,-1.127478 0.52081,-2.762456 0.51499,-4.904936 0.006,-2.123293 -0.16585,-3.746604 -0.51499,-4.869937 -0.34918,-1.123303 -0.91084,-2.086623 -1.68498,-2.889963 -0.54917,-0.650807 -1.32083,-1.239132 -2.31497,-1.764977 -0.99417,-0.525806 -2.27581,-0.804136 -3.84495,-0.834989 -1.56915,0.03085 -2.8508,0.309183 -3.84495,0.834989 -0.99416,0.525846 -1.76582,1.114171 -2.31497,1.764977 -0.77416,0.80334 -1.33582,1.76666 -1.68498,2.889963 -0.34916,1.123333 -0.52083,2.746644 -0.51499,4.869937 z m 12.63984,0.04 c 0.006,1.40999 -0.0659,2.439975 -0.215,3.089959 -0.14918,0.649999 -0.41084,1.219991 -0.78499,1.709979 -0.31168,0.429165 -0.75834,0.780827 -1.33998,1.054985 -0.58168,0.274167 -1.22833,0.415832 -1.93998,0.424996 -0.71167,-0.0092 -1.35832,-0.150828 -1.93997,-0.424995 -0.58167,-0.274159 -1.02833,-0.625821 -1.33999,-1.054986 -0.37417,-0.489155 -0.63583,-1.060814 -0.78499,-1.714978 -0.14917,-0.65415 -0.22083,-1.695803 -0.21499,-3.12496 -0.006,-1.40997 0.0658,-2.439956 0.21499,-3.089961 0.14916,-0.649978 0.41082,-1.219969 0.78499,-1.709977 0.31166,-0.429146 0.75832,-0.780808 1.33999,-1.054987 0.58165,-0.274148 1.2283,-0.415812 1.93997,-0.424994 0.71165,0.0092 1.3583,0.150849 1.93998,0.424995 0.58164,0.274179 1.0283,0.625841 1.33998,1.054986 0.37415,0.489175 0.63581,1.060834 0.78499,1.714978 0.14915,0.654171 0.22081,1.695824 0.215,3.12496 z"
           id="path2873"
           style="fill:#660000;font-family:DINMittelschrift;-inkscape-font-specification:DINMittelschrift" />
      </g>
    </a>
  </g>
</svg>
